<svg xmlns="http://www.w3.org/2000/svg" viewBox="0 0 32 32" role="img" aria-label="Mohasti">
  <defs>
    <linearGradient id="bg" x1="0%" y1="0%" x2="100%" y2="100%">
      <stop offset="0%" stop-color="#1A8A8F"/>
      <stop offset="45%" stop-color="#0CC0DF"/>
      <stop offset="100%" stop-color="#FFDE59"/>
    </linearGradient>
    <linearGradient id="gold" x1="0%" y1="0%" x2="100%" y2="0%">
      <stop offset="0%" stop-color="#C9A227"/>
      <stop offset="50%" stop-color="#E8D48B"/>
      <stop offset="100%" stop-color="#C9A227"/>
    </linearGradient>
  </defs>
  <rect width="32" height="32" rx="7" fill="url(#bg)"/>
  <circle cx="17.4" cy="9.4" r="3.1" fill="#F5C6D8"/>
  <circle cx="18.3" cy="8.7" r="2.6" fill="url(#bg)"/>
  <path
    d="M16 12.4 C16 10.7 18.1 10.4 18.5 11.7 C18.9 13.1 16 14.7 16 14.7 C16 14.7 13.1 13.1 13.5 11.7 C13.9 10.4 16 10.7 16 12.4"
    fill="none"
    stroke="url(#gold)"
    stroke-width="0.85"
    stroke-linecap="round"
  />
  <ellipse cx="16" cy="24.2" rx="7.8" ry="2.7" fill="#1E6FD9" opacity="0.5"/>
  <path
    d="M16 20.4 C13.3 20.4 11.9 22.4 12.3 24.1 C12.6 25.4 14.1 26.1 16 25.7 C17.9 26.1 19.4 25.4 19.7 24.1 C20.1 22.4 18.7 20.4 16 20.4Z"
    fill="#7EC8FF"
  />
  <circle cx="16" cy="23.4" r="1.15" fill="#FFFFFF"/>
</svg>
